<mxfile host="65bd71144e">
    <diagram id="qO1dpP4PeGmMtbzZPgzO" name="Zustandsdiagramm">
        <mxGraphModel dx="918" dy="526" grid="1" gridSize="10" guides="1" tooltips="1" connect="1" arrows="1" fold="1" page="1" pageScale="1" pageWidth="827" pageHeight="1169" math="0" shadow="0">
            <root>
                <mxCell id="0"/>
                <mxCell id="1" parent="0"/>
                <mxCell id="4" style="edgeStyle=none;html=1;endArrow=open;endFill=0;" parent="1" source="2" target="3" edge="1">
                    <mxGeometry relative="1" as="geometry"/>
                </mxCell>
                <mxCell id="2" value="" style="ellipse;fillColor=#000000;strokeColor=none;" parent="1" vertex="1">
                    <mxGeometry x="190" y="90" width="30" height="30" as="geometry"/>
                </mxCell>
                <mxCell id="6" style="edgeStyle=none;html=1;endArrow=open;endFill=0;" parent="1" source="3" target="5" edge="1">
                    <mxGeometry relative="1" as="geometry"/>
                </mxCell>
                <mxCell id="8" value="Suchanfrage absenden" style="edgeLabel;html=1;align=center;verticalAlign=middle;resizable=0;points=[];" parent="6" vertex="1" connectable="0">
                    <mxGeometry x="-0.4212" y="1" relative="1" as="geometry">
                        <mxPoint x="-1" y="13" as="offset"/>
                    </mxGeometry>
                </mxCell>
                <mxCell id="3" value="Suchparameter unvollständig&lt;br&gt;do/SuchparameterEingeben()" style="html=1;align=center;verticalAlign=top;rounded=1;absoluteArcSize=1;arcSize=10;dashed=0;" parent="1" vertex="1">
                    <mxGeometry x="112.5" y="180" width="185" height="50" as="geometry"/>
                </mxCell>
                <mxCell id="7" style="edgeStyle=none;html=1;endArrow=open;endFill=0;entryX=0;entryY=0.5;entryDx=0;entryDy=0;" parent="1" source="5" target="3" edge="1">
                    <mxGeometry relative="1" as="geometry">
                        <mxPoint x="30" y="305" as="targetPoint"/>
                        <Array as="points">
                            <mxPoint x="60" y="305"/>
                            <mxPoint x="60" y="205"/>
                        </Array>
                    </mxGeometry>
                </mxCell>
                <mxCell id="9" value="[ungültige Eingabe]" style="edgeLabel;html=1;align=center;verticalAlign=middle;resizable=0;points=[];" parent="7" vertex="1" connectable="0">
                    <mxGeometry x="-0.1852" y="1" relative="1" as="geometry">
                        <mxPoint x="45" y="-1" as="offset"/>
                    </mxGeometry>
                </mxCell>
                <mxCell id="10" style="edgeStyle=none;html=1;endArrow=open;endFill=0;entryX=0;entryY=0.5;entryDx=0;entryDy=0;" parent="1" source="5" target="12" edge="1">
                    <mxGeometry relative="1" as="geometry">
                        <mxPoint x="450" y="305" as="targetPoint"/>
                    </mxGeometry>
                </mxCell>
                <mxCell id="11" value="[gültige Eingabe]" style="edgeLabel;html=1;align=center;verticalAlign=middle;resizable=0;points=[];" parent="10" vertex="1" connectable="0">
                    <mxGeometry x="-0.165" y="2" relative="1" as="geometry">
                        <mxPoint as="offset"/>
                    </mxGeometry>
                </mxCell>
                <mxCell id="5" value="" style="rhombus;" parent="1" vertex="1">
                    <mxGeometry x="190" y="290" width="30" height="30" as="geometry"/>
                </mxCell>
                <mxCell id="14" style="edgeStyle=none;html=1;entryX=0.5;entryY=0;entryDx=0;entryDy=0;endArrow=open;endFill=0;" parent="1" source="12" target="13" edge="1">
                    <mxGeometry relative="1" as="geometry"/>
                </mxCell>
                <mxCell id="15" value="Reservierung anfragen (Telefon/Internet)" style="edgeLabel;html=1;align=center;verticalAlign=middle;resizable=0;points=[];" parent="14" vertex="1" connectable="0">
                    <mxGeometry x="-0.43" relative="1" as="geometry">
                        <mxPoint y="10" as="offset"/>
                    </mxGeometry>
                </mxCell>
                <mxCell id="12" value="Suche ist erfolgreich&lt;br&gt;entry/FahrzeuglisteAnzeigen()&lt;br&gt;do/FahrzeugAuswählen&lt;br&gt;" style="html=1;align=center;verticalAlign=top;rounded=1;absoluteArcSize=1;arcSize=10;dashed=0;" parent="1" vertex="1">
                    <mxGeometry x="370" y="275" width="185" height="60" as="geometry"/>
                </mxCell>
                <mxCell id="16" style="edgeStyle=none;html=1;endArrow=open;endFill=0;entryX=1;entryY=0.5;entryDx=0;entryDy=0;exitX=1;exitY=0.5;exitDx=0;exitDy=0;" parent="1" source="13" target="12" edge="1">
                    <mxGeometry relative="1" as="geometry">
                        <mxPoint x="250" y="400" as="targetPoint"/>
                        <Array as="points">
                            <mxPoint x="700" y="425"/>
                            <mxPoint x="700" y="305"/>
                        </Array>
                    </mxGeometry>
                </mxCell>
                <mxCell id="19" value="[Auto nicht verfügbar]" style="edgeLabel;html=1;align=center;verticalAlign=middle;resizable=0;points=[];" parent="16" vertex="1" connectable="0">
                    <mxGeometry x="-0.332" y="1" relative="1" as="geometry">
                        <mxPoint x="60" y="-64" as="offset"/>
                    </mxGeometry>
                </mxCell>
                <mxCell id="18" style="edgeStyle=none;html=1;endArrow=open;endFill=0;" parent="1" source="13" target="21" edge="1">
                    <mxGeometry relative="1" as="geometry">
                        <mxPoint x="462.5" y="570" as="targetPoint"/>
                    </mxGeometry>
                </mxCell>
                <mxCell id="20" value="[Auto verfügbar]" style="edgeLabel;html=1;align=center;verticalAlign=middle;resizable=0;points=[];" parent="18" vertex="1" connectable="0">
                    <mxGeometry x="-0.3746" y="2" relative="1" as="geometry">
                        <mxPoint x="-2" y="11" as="offset"/>
                    </mxGeometry>
                </mxCell>
                <mxCell id="13" value="" style="rhombus;" parent="1" vertex="1">
                    <mxGeometry x="447.5" y="410" width="30" height="30" as="geometry"/>
                </mxCell>
                <mxCell id="25" style="edgeStyle=none;html=1;exitX=0;exitY=0.25;exitDx=0;exitDy=0;endArrow=open;endFill=0;entryX=0.25;entryY=1;entryDx=0;entryDy=0;" parent="1" source="21" target="21" edge="1">
                    <mxGeometry relative="1" as="geometry">
                        <mxPoint x="170" y="500" as="targetPoint"/>
                        <Array as="points">
                            <mxPoint x="110" y="515"/>
                            <mxPoint x="110" y="600"/>
                            <mxPoint x="400" y="600"/>
                        </Array>
                    </mxGeometry>
                </mxCell>
                <mxCell id="26" value="ändern(vor Reservierungszeitraum)" style="edgeLabel;html=1;align=center;verticalAlign=middle;resizable=0;points=[];" parent="25" vertex="1" connectable="0">
                    <mxGeometry x="-0.4393" y="-1" relative="1" as="geometry">
                        <mxPoint x="48" y="46" as="offset"/>
                    </mxGeometry>
                </mxCell>
                <mxCell id="27" style="edgeStyle=none;html=1;endArrow=open;endFill=0;entryX=0.489;entryY=0.549;entryDx=0;entryDy=0;entryPerimeter=0;" parent="1" source="21" target="30" edge="1">
                    <mxGeometry relative="1" as="geometry">
                        <mxPoint x="735" y="570" as="targetPoint"/>
                        <Array as="points">
                            <mxPoint x="735" y="530"/>
                        </Array>
                    </mxGeometry>
                </mxCell>
                <mxCell id="29" value="stornieren(vor Reservierungszeitraum)" style="edgeLabel;html=1;align=center;verticalAlign=middle;resizable=0;points=[];" parent="27" vertex="1" connectable="0">
                    <mxGeometry x="-0.2768" y="-1" relative="1" as="geometry">
                        <mxPoint x="52" y="-21" as="offset"/>
                    </mxGeometry>
                </mxCell>
                <mxCell id="32" style="edgeStyle=none;html=1;endArrow=open;endFill=0;" edge="1" parent="1" source="21" target="31">
                    <mxGeometry relative="1" as="geometry"/>
                </mxCell>
                <mxCell id="33" value="Reservierungszeitraum beginnt/KundenkarteFreischalten()" style="edgeLabel;html=1;align=center;verticalAlign=middle;resizable=0;points=[];" vertex="1" connectable="0" parent="32">
                    <mxGeometry x="0.2124" y="1" relative="1" as="geometry">
                        <mxPoint x="-1" as="offset"/>
                    </mxGeometry>
                </mxCell>
                <mxCell id="21" value="Reservierung getätigt&lt;br&gt;entry/ReservierungsbestätigungSenden()" style="html=1;align=center;verticalAlign=top;rounded=1;absoluteArcSize=1;arcSize=10;dashed=0;" parent="1" vertex="1">
                    <mxGeometry x="337.5" y="500" width="250" height="60" as="geometry"/>
                </mxCell>
                <mxCell id="30" value="" style="shape=umlDestroy;" parent="1" vertex="1">
                    <mxGeometry x="720" y="570" width="30" height="30" as="geometry"/>
                </mxCell>
                <mxCell id="35" value="" style="edgeStyle=none;html=1;endArrow=open;endFill=0;" edge="1" parent="1" source="31" target="34">
                    <mxGeometry relative="1" as="geometry"/>
                </mxCell>
                <mxCell id="38" value="Fahrzeug mit Kundenkarte öffnen [im Reservierungszeitraum]" style="edgeLabel;html=1;align=center;verticalAlign=middle;resizable=0;points=[];" vertex="1" connectable="0" parent="35">
                    <mxGeometry x="-0.5072" y="4" relative="1" as="geometry">
                        <mxPoint x="-4" y="22" as="offset"/>
                    </mxGeometry>
                </mxCell>
                <mxCell id="40" value="" style="edgeStyle=none;html=1;endArrow=open;endFill=0;entryX=0.75;entryY=0;entryDx=0;entryDy=0;" edge="1" parent="1" source="31" target="39">
                    <mxGeometry relative="1" as="geometry">
                        <Array as="points">
                            <mxPoint x="688" y="685"/>
                        </Array>
                    </mxGeometry>
                </mxCell>
                <mxCell id="41" value="Reservierungszeitraum beendet" style="edgeLabel;html=1;align=center;verticalAlign=middle;resizable=0;points=[];" vertex="1" connectable="0" parent="40">
                    <mxGeometry x="-0.0832" relative="1" as="geometry">
                        <mxPoint y="90" as="offset"/>
                    </mxGeometry>
                </mxCell>
                <mxCell id="31" value="Fahrzeug freigeschaltet/verfügbar&lt;br&gt;(für oben genannte Kundenkarte)" style="html=1;align=center;verticalAlign=top;rounded=1;absoluteArcSize=1;arcSize=10;dashed=0;" vertex="1" parent="1">
                    <mxGeometry x="337.5" y="660" width="250" height="50" as="geometry"/>
                </mxCell>
                <mxCell id="36" style="edgeStyle=none;html=1;entryX=0;entryY=0.5;entryDx=0;entryDy=0;endArrow=open;endFill=0;" edge="1" parent="1" source="34" target="31">
                    <mxGeometry relative="1" as="geometry">
                        <Array as="points">
                            <mxPoint x="120" y="808"/>
                            <mxPoint x="120" y="685"/>
                        </Array>
                    </mxGeometry>
                </mxCell>
                <mxCell id="37" value="Fahrzeug mit Kundenkarte schließen [im Reservierungszeitraum]" style="edgeLabel;html=1;align=center;verticalAlign=middle;resizable=0;points=[];" vertex="1" connectable="0" parent="36">
                    <mxGeometry x="-0.3894" relative="1" as="geometry">
                        <mxPoint x="18" y="22" as="offset"/>
                    </mxGeometry>
                </mxCell>
                <mxCell id="34" value="Fahrzeug in Nutzung&lt;br&gt;do/DatenSammeln()" style="whiteSpace=wrap;html=1;verticalAlign=top;rounded=1;arcSize=10;dashed=0;" vertex="1" parent="1">
                    <mxGeometry x="402.5" y="785" width="120" height="45" as="geometry"/>
                </mxCell>
                <mxCell id="43" style="edgeStyle=none;html=1;entryX=0.5;entryY=0;entryDx=0;entryDy=0;endArrow=open;endFill=0;exitX=0.5;exitY=1;exitDx=0;exitDy=0;" edge="1" parent="1" source="39" target="42">
                    <mxGeometry relative="1" as="geometry"/>
                </mxCell>
                <mxCell id="39" value="Fahrzeug gesperrt&lt;br&gt;entry/freischaltungKundenkarteAufheben()" style="whiteSpace=wrap;html=1;verticalAlign=top;rounded=1;arcSize=10;dashed=0;" vertex="1" parent="1">
                    <mxGeometry x="500" y="930" width="250" height="60" as="geometry"/>
                </mxCell>
                <mxCell id="42" value="" style="ellipse;html=1;shape=endState;fillColor=#000000;strokeColor=#000000;" vertex="1" parent="1">
                    <mxGeometry x="610" y="1050" width="30" height="30" as="geometry"/>
                </mxCell>
            </root>
        </mxGraphModel>
    </diagram>
</mxfile>